<?xml version="1.0" encoding="utf-8"?>
<!-- Generator: Adobe Illustrator 22.0.1, SVG Export Plug-In . SVG Version: 6.00 Build 0)  -->
<svg version="1.1" id="Layer_1" xmlns="http://www.w3.org/2000/svg" xmlns:xlink="http://www.w3.org/1999/xlink" x="0px" y="0px"
	 viewBox="0 0 519.8 98.9" style="enable-background:new 0 0 519.8 98.9;" xml:space="preserve">
<style type="text/css">
	.Arched_x0020_Green{fill:url(#SVGID_1_);stroke:#FFFFFF;stroke-width:0.25;stroke-miterlimit:1;}
	.st0{fill:#EC2027;}
	.st1{fill:#FFFFFF;}
</style>
<linearGradient id="SVGID_1_" gradientUnits="userSpaceOnUse" x1="-93.0806" y1="366.2549" x2="-92.3735" y2="365.5478">
	<stop  offset="0" style="stop-color:#20AC4B"/>
	<stop  offset="0.9831" style="stop-color:#19361A"/>
</linearGradient>
<g>
	<g>
		<g>
			<g>
				<path class="st0" d="M12.6,48.2c0,5.2,4.2,8.2,9.1,8.2c4.6,0,8.5-3.4,8.5-8.2c0-7.2-6-9.3-11.4-11c-4.3-1.4-8-2.7-11.3-6
					c-3.2-3.3-5.1-8-5.1-12.5C2.4,7.9,11.2,0,21.6,0c10.1,0,19.2,8.3,19.1,18.6H28.3c-0.2-4.1-3.5-6.8-7.3-6.8c-4,0-6.5,3-6.5,6.9
					c-0.1,4.8,4.3,6.6,8.2,8c4.6,1.6,9,2.9,12.7,6c4.7,3.7,6.9,8.5,6.9,14.8c0,11.7-9.6,20.7-21.2,20.7C10,68.1,0,59.6,0,48.2H12.6z
					"/>
				<path class="st0" d="M45.4,1.2h12.1v65.3H45.4V1.2z"/>
				<path class="st0" d="M71.5,13h-12V1.2h36.3V13H83.6v53.5H71.5V13z"/>
			</g>
			<g>
				<path class="st1" d="M123.1,1.2h16.5l17.5,49.9l17.8-49.9h16.4v65.3h-12.1v-49l-16.9,49h-10.2l-16.9-49v49h-12.1V1.2z"/>
				<path class="st1" d="M197.3,1.2h35.1V13h-23v15h22v11.8h-22v15h23v11.8h-35.1V1.2z"/>
				<path class="st1" d="M259.8,1.2h9.5l27.5,65.3h-13.3l-7.1-16.9h-23.2l-7.2,16.9h-13.3L259.8,1.2z M271.5,37.9l-7-19.8l-7,19.8
					H271.5z"/>
				<path class="st1" d="M298,1.2h13.6L338.9,49V1.2H351v65.3h-13.4L310.1,19v47.5H298V1.2z"/>
				<path class="st1" d="M366,48.2c0,5.2,4.2,8.2,9.1,8.2c4.6,0,8.5-3.4,8.5-8.2c0-7.2-6-9.3-11.4-11c-4.3-1.4-8-2.7-11.3-6
					c-3.2-3.3-5.1-8-5.1-12.5C355.7,7.9,364.6,0,375,0c10.1,0,19.2,8.3,19.1,18.6h-12.5c-0.2-4.1-3.5-6.8-7.3-6.8
					c-4,0-6.5,3-6.5,6.9c-0.1,4.8,4.3,6.6,8.2,8c4.6,1.6,9,2.9,12.7,6c4.7,3.7,6.9,8.5,6.9,14.8c0,11.7-9.6,20.7-21.2,20.7
					c-11.1,0-21.1-8.6-21.1-20H366z"/>
			</g>
			<g>
				<path class="st1" d="M433,48.2c0,5.2,4.2,8.2,9.1,8.2c4.6,0,8.5-3.4,8.5-8.2c0-7.2-6-9.3-11.4-11c-4.3-1.4-8-2.7-11.3-6
					c-3.2-3.3-5.1-8-5.1-12.5c0-10.7,8.8-18.6,19.3-18.6c10.1,0,19.2,8.3,19.1,18.6h-12.5c-0.2-4.1-3.5-6.8-7.3-6.8
					c-4,0-6.5,3-6.5,6.9c-0.1,4.8,4.3,6.6,8.2,8c4.6,1.6,9,2.9,12.7,6c4.7,3.7,6.9,8.5,6.9,14.8c0,11.7-9.6,20.7-21.2,20.7
					c-11.1,0-21.1-8.6-21.1-20H433z"/>
				<path class="st1" d="M465.8,1.2h12.1v65.3h-12.1V1.2z"/>
				<path class="st1" d="M491.9,13h-12V1.2h36.3V13H504v53.5h-12.1V13z"/>
			</g>
			<g>
				<path class="st1" d="M32.6,83.8v7.7c0,4.9-2.4,7.2-7.8,7.2H3.3V76.4h19.6C29.5,76.4,32.6,78.5,32.6,83.8z M10.1,81.8v11.4h11.5
					c2.9,0,4.2-1.1,4.2-3.7v-3.9c0-2.6-1.6-3.8-5-3.8H10.1z"/>
				<path class="st1" d="M54.5,97.4c-1.8-1.4-2.4-3.4-2.4-6.6v-6.1c0-3.4,0.6-5.6,2.4-7c1.8-1.4,4.6-1.6,8.7-1.6h8
					c4.1,0,6.9,0.2,8.7,1.6c1.7,1.3,2.4,3.4,2.4,6.8v6.2c0,3.3-0.7,5.4-2.4,6.8c-1.8,1.4-4.6,1.6-8.7,1.6h-8
					C59.2,98.9,56.4,98.8,54.5,97.4z M69.4,93.4c4.3,0,6-0.6,6-4.3v-3.2c0-3.6-1.7-4.3-6-4.3H65c-4.4,0-6,0.6-6,4.4v3.1
					c0,3.5,1.7,4.2,6,4.2H69.4z"/>
				<path class="st1" d="M123.5,84.3c0-2.5-1.6-2.7-5.1-2.7h-4c-4.4,0-5.5,0.6-5.5,4.4v3.1c0,3.5,1.5,4.2,5.5,4.2h3.9
					c3.6,0,5.2-0.5,5.2-2.4c0-0.2,0-0.4-0.1-0.7h-8v-4.5h15.1v7.3c0,4.5-3.3,5.8-10.4,5.8h-7.6c-3.5,0-6-0.2-8-1.7
					c-1.9-1.5-2.6-3.5-2.6-6.5v-6.1c0-6.7,2.9-8.6,10.5-8.6h7.6c3.9,0,6.6,0.2,8.2,1.4c1.4,1.1,2.1,2.9,2.1,5.6c0,0.4,0,0.8,0,1.3
					L123.5,84.3C123.5,84.4,123.5,84.3,123.5,84.3z"/>
				<path class="st1" d="M189.3,98.7V81.8H180v-5.5h25.5v5.5h-9.3v16.9H189.3z"/>
				<path class="st1" d="M251.7,83.7c0,3.7-0.9,5.5-3.7,6.2c2.3,0.6,3.5,2,3.5,4.2v4.6h-6.8v-3.4c0-1.9-0.8-2.3-3.1-2.3h-10.2v5.7
					h-6.8V76.4h17.9C249.3,76.4,251.7,77.9,251.7,83.7z M231.4,81.9v5.5h10.8c1.9,0,2.5-0.8,2.5-2.9c0-1.7-0.7-2.5-2.5-2.5H231.4z"
					/>
				<path class="st1" d="M269.8,98.7l12.2-22.3h8.7l12,22.3h-7.5L293,95h-13.6l-2.2,3.7H269.8z M290.5,89.6l-4.3-7.9l-4.2,7.9H290.5
					z"/>
				<path class="st1" d="M321.1,98.7V76.4h6.8v22.3H321.1z"/>
				<path class="st1" d="M368.9,98.7l-13.4-16.2v16.2h-6.8V76.4h10.1l13.3,16.4V76.4h6.8v22.3H368.9z"/>
				<path class="st1" d="M399.6,98.7V76.4h6.8v22.3H399.6z"/>
				<path class="st1" d="M447.4,98.7L434,82.4v16.2h-6.8V76.4h10.1l13.3,16.4V76.4h6.8v22.3H447.4z"/>
				<path class="st1" d="M498.9,84.3c0-2.5-1.6-2.7-5.1-2.7h-4c-4.4,0-5.5,0.6-5.5,4.4v3.1c0,3.5,1.5,4.2,5.5,4.2h3.9
					c3.6,0,5.2-0.5,5.2-2.4c0-0.2,0-0.4-0.1-0.7h-8v-4.5H506v7.3c0,4.5-3.3,5.8-10.4,5.8h-7.6c-3.5,0-6-0.2-8-1.7
					c-1.9-1.5-2.6-3.5-2.6-6.5v-6.1c0-6.7,2.9-8.6,10.5-8.6h7.6c3.9,0,6.6,0.2,8.2,1.4c1.4,1.1,2.1,2.9,2.1,5.6c0,0.4,0,0.8,0,1.3
					L498.9,84.3C498.9,84.4,498.9,84.3,498.9,84.3z"/>
			</g>
		</g>
		<g>
			<path class="st1" d="M515.8,95h-0.8v-0.3h2V95h-0.8v2.4h-0.3V95z"/>
			<path class="st1" d="M519.4,96.2c0-0.4,0-0.8,0-1.1h0c-0.1,0.3-0.2,0.6-0.3,1l-0.5,1.3h-0.3l-0.4-1.3c-0.1-0.4-0.2-0.7-0.3-1h0
				c0,0.3,0,0.8-0.1,1.2l-0.1,1.1h-0.3l0.2-2.7h0.4l0.5,1.3c0.1,0.3,0.2,0.6,0.3,0.9h0c0.1-0.3,0.2-0.6,0.3-0.9l0.5-1.3h0.4l0.2,2.7
				h-0.3L519.4,96.2z"/>
		</g>
	</g>
</g>
</svg>
